<?xml version="1.0" encoding="UTF-8"?><svg id="Layer_2" xmlns="http://www.w3.org/2000/svg" width="1200" height="1800" viewBox="0 0 1200 1800"><defs><style>.cls-1{fill:#8cc63f;}.cls-1,.cls-2{stroke-width:0px;}.cls-2{fill:#fbb03b;}</style></defs><path class="cls-1" d="m177,449s13-68,54-121,204-102,204-102l14-148,179,16-10,90s39.35,72,102.68,79.5,132.32-72.5,132.32-72.5l53,5-59.9,704h95.23l-35.32,555-782-49,18-367,165,7,19-594-149-3Z"/><path class="cls-2" d="m185,403l465-36-123-285h58.97l134.03,263,188,3-11,95-393-15s-37.77-5-57.39,15-17.61,49-17.61,49l-14,196h30.45s39.55,4,37.55,61-42,63-42,63h-28.06l-3.94,264-67-7,2-266-49,.45v-72l53,2.55,14-274h-193l16-57Z"/></svg>